<svg xmlns="http://www.w3.org/2000/svg" width="632.1315307617188" height="504.58538818359375" viewBox="-201.9479522705078 -158.1693572998047 632.1315307617188 504.58538818359375"><title>Neo4j Graph Visualization</title><desc>Created using Neo4j (http://www.neo4j.com/)</desc><g class="layer relationships"><g class="relationship" transform="translate(100 100.0000001430009) rotate(367.6323562939291)"><path class="outline" fill="#A5ABB6" stroke="none" d="M 25 0.5 L 116.36134664471214 0.5 L 116.36134664471214 -0.5 L 25 -0.5 Z M 142.38087789471214 0.5 L 233.74222453942429 0.5 L 233.74222453942429 3.5 L 240.74222453942429 0 L 233.74222453942429 -3.5 L 233.74222453942429 -0.5 L 142.38087789471214 -0.5 Z"/><text text-anchor="middle" pointer-events="none" font-size="8px" fill="#000000" x="129.37111226971214" y="3" font-family="sans-serif">4.440</text></g><g class="relationship" transform="translate(100 100.0000001430009) rotate(348.8507859153764)"><path class="outline" fill="#A5ABB6" stroke="none" d="M 25 0.5 L 136.97882554537952 0.5 L 136.97882554537952 -0.5 L 25 -0.5 Z M 162.99835679537952 0.5 L 274.97718234075904 0.5 L 274.97718234075904 3.5 L 281.97718234075904 0 L 274.97718234075904 -3.5 L 274.97718234075904 -0.5 L 162.99835679537952 -0.5 Z"/><text text-anchor="middle" pointer-events="none" font-size="8px" fill="#000000" x="149.98859117037952" y="3" font-family="sans-serif">6.200</text></g><g class="relationship" transform="translate(100 100.0000001430009) rotate(303.68374977066554)"><path class="outline" fill="#A5ABB6" stroke="none" d="M 25 0.5 L 94.35864209985343 0.5 L 94.35864209985343 -0.5 L 25 -0.5 Z M 120.37817334985343 0.5 L 189.73681544970685 0.5 L 189.73681544970685 3.5 L 196.73681544970685 0 L 189.73681544970685 -3.5 L 189.73681544970685 -0.5 L 120.37817334985343 -0.5 Z"/><text text-anchor="middle" pointer-events="none" font-size="8px" fill="#000000" x="107.36840772485343" y="3" font-family="sans-serif">4.340</text></g><g class="relationship" transform="translate(100 100.0000001430009) rotate(416.87803785279715)"><path class="outline" fill="#A5ABB6" stroke="none" d="M 25 0.5 L 63.12563601191415 0.5 L 63.12563601191415 -0.5 L 25 -0.5 Z M 89.14516726191415 0.5 L 127.2708032738283 0.5 L 127.2708032738283 3.5 L 134.2708032738283 0 L 127.2708032738283 -3.5 L 127.2708032738283 -0.5 L 89.14516726191415 -0.5 Z"/><text text-anchor="middle" pointer-events="none" font-size="8px" fill="#000000" x="76.13540163691415" y="3" font-family="sans-serif">1.700</text></g><g class="relationship" transform="translate(-107.08622589135027 188.2022036561096) rotate(336.9298662026406)"><path class="outline" fill="#A5ABB6" stroke="none" d="M 25 0.5 L 96.03392995419625 0.5 L 96.03392995419625 -0.5 L 25 -0.5 Z M 122.05346120419625 0.5 L 193.0873911583925 0.5 L 193.0873911583925 3.5 L 200.0873911583925 0 L 193.0873911583925 -3.5 L 193.0873911583925 -0.5 L 122.05346120419625 -0.5 Z"/><text text-anchor="middle" pointer-events="none" font-size="8px" fill="#000000" x="109.04369557919625" y="3" font-family="sans-serif">6.160</text></g><g class="relationship" transform="translate(100 100.0000001430009) rotate(237.08539580942693)"><path class="outline" fill="#A5ABB6" stroke="none" d="M 25 0.5 L 86.27481098788618 0.5 L 86.27481098788618 -0.5 L 25 -0.5 Z M 112.29434223788618 0.5 L 173.56915322577237 0.5 L 173.56915322577237 3.5 L 180.56915322577237 0 L 173.56915322577237 -3.5 L 173.56915322577237 -0.5 L 112.29434223788618 -0.5 Z"/><text text-anchor="middle" pointer-events="none" font-size="8px" fill="#000000" x="99.28457661288618" y="3" transform="rotate(180 99.28457661288618 0)" font-family="sans-serif">3.920</text></g><g class="relationship" transform="translate(100 100.0000001430009) rotate(205.11807478242804)"><path class="outline" fill="#A5ABB6" stroke="none" d="M 25 0.5 L 97.3524843436423 0.5 L 97.3524843436423 -0.5 L 25 -0.5 Z M 123.3720155936423 0.5 L 195.7244999372846 0.5 L 195.7244999372846 3.5 L 202.7244999372846 0 L 195.7244999372846 -3.5 L 195.7244999372846 -0.5 L 123.3720155936423 -0.5 Z"/><text text-anchor="middle" pointer-events="none" font-size="8px" fill="#000000" x="110.3622499686423" y="3" transform="rotate(180 110.3622499686423 0)" font-family="sans-serif">2.740</text></g><g class="relationship" transform="translate(100 100.0000001430009) rotate(184.30090226930167)"><path class="outline" fill="#A5ABB6" stroke="none" d="M 25 0.5 L 120.34961367937856 0.5 L 120.34961367937856 -0.5 L 25 -0.5 Z M 146.36914492937856 0.5 L 241.71875860875713 0.5 L 241.71875860875713 3.5 L 248.71875860875713 0 L 241.71875860875713 -3.5 L 241.71875860875713 -0.5 L 146.36914492937856 -0.5 Z"/><text text-anchor="middle" pointer-events="none" font-size="8px" fill="#000000" x="133.35937930437856" y="3" transform="rotate(180 133.35937930437856 0)" font-family="sans-serif">3.790</text></g><g class="relationship" transform="translate(100 100.0000001430009) rotate(477.82917196109975)"><path class="outline" fill="#A5ABB6" stroke="none" d="M 25 0.5 L 106.41536581874814 0.5 L 106.41536581874814 -0.5 L 25 -0.5 Z M 132.43489706874814 0.5 L 213.85026288749629 0.5 L 213.85026288749629 3.5 L 220.85026288749629 0 L 213.85026288749629 -3.5 L 213.85026288749629 -0.5 L 132.43489706874814 -0.5 Z"/><text text-anchor="middle" pointer-events="none" font-size="8px" fill="#000000" x="119.42513144374814" y="3" transform="rotate(180 119.42513144374814 0)" font-family="sans-serif">6.500</text></g><g class="relationship" transform="translate(222.97711070452604 -84.50974368789846) rotate(537.0878634883105)"><path class="outline" fill="#A5ABB6" stroke="none" d="M 21.40063509461097,-12.933012701892217 L 21.90063509461097,-12.06698729810778 A 189.48521295200015 189.48521295200015 0 0 1 100.93462995121277,-36.80093570819841 L 100.85172843412512,-37.797493452869816 A 190.48521295200015 190.48521295200015 0 0 0 21.40063509461097,-12.933012701892217 Z M 126.9166060739304,-38.17595576889326 L 126.86267346496768,-37.177411191175054 A 189.48521295200015 189.48521295200015 0 0 1 206.5814727720302,-14.74855513504311 L 205.15753741897123,-12.108023349529276 L 212.98003616373896,-11.86612794215786 L 208.48005324277545,-18.26926418239489 L 207.0561178897165,-15.628732396881054 A 190.48521295200015 190.48521295200015 0 0 0 126.9166060739304,-38.17595576889326"/><text text-anchor="middle" pointer-events="none" font-size="8px" fill="#000000" x="113.88494489664524" y="-34.93316799820482" transform="rotate(180 113.88494489664524 -37.93316799820482)" font-family="sans-serif">9.150</text></g><g class="relationship" transform="translate(222.97711070452604 -84.50974368789846) rotate(537.0878634883105)"><path class="outline" fill="#A5ABB6" stroke="none" d="M 25 0.5 L 100.98246822984372 0.5 L 100.98246822984372 -0.5 L 25 -0.5 Z M 127.00199947984372 0.5 L 202.98446770968744 0.5 L 202.98446770968744 3.5 L 209.98446770968744 0 L 202.98446770968744 -3.5 L 202.98446770968744 -0.5 L 127.00199947984372 -0.5 Z"/><text text-anchor="middle" pointer-events="none" font-size="8px" fill="#000000" x="113.99223385484372" y="3" transform="rotate(180 113.99223385484372 0)" font-family="sans-serif">7.710</text></g><g class="relationship" transform="translate(187.02923465098817 233.39078352608837) rotate(517.39430565632)"><path class="outline" fill="#A5ABB6" stroke="none" d="M 25 0.5 L 92.78797093547239 0.5 L 92.78797093547239 -0.5 L 25 -0.5 Z M 118.80750218547239 0.5 L 186.59547312094477 0.5 L 186.59547312094477 3.5 L 193.59547312094477 0 L 186.59547312094477 -3.5 L 186.59547312094477 -0.5 L 118.80750218547239 -0.5 Z"/><text text-anchor="middle" pointer-events="none" font-size="8px" fill="#000000" x="105.79773656047239" y="3" transform="rotate(180 105.79773656047239 0)" font-family="sans-serif">9.170</text></g><g class="relationship" transform="translate(-11.70390231124803 -72.57147770429641) rotate(357.0878634883105)"><path class="outline" fill="#A5ABB6" stroke="none" d="M 21.40063509461097,-12.933012701892217 L 21.90063509461097,-12.06698729810778 A 189.48521295200015 189.48521295200015 0 0 1 100.93462995121277,-36.80093570819841 L 100.85172843412512,-37.797493452869816 A 190.48521295200015 190.48521295200015 0 0 0 21.40063509461097,-12.933012701892217 Z M 126.9166060739304,-38.17595576889326 L 126.86267346496768,-37.177411191175054 A 189.48521295200015 189.48521295200015 0 0 1 206.5814727720302,-14.74855513504311 L 205.15753741897123,-12.108023349529276 L 212.98003616373896,-11.86612794215786 L 208.48005324277545,-18.26926418239489 L 207.0561178897165,-15.628732396881054 A 190.48521295200015 190.48521295200015 0 0 0 126.9166060739304,-38.17595576889326"/><text text-anchor="middle" pointer-events="none" font-size="8px" fill="#000000" x="113.88494489664524" y="-34.93316799820482" font-family="sans-serif">9.150</text></g></g><g class="layer nodes"><g class="node selected" transform="translate(100,100.0000001430009)"><circle class="outline" cx="0" cy="0" r="25" fill="#A5ABB6" stroke="#9AA1AC" stroke-width="2px"/><text text-anchor="middle" pointer-events="none" font-family="sans-serif" dy="1.5625" font-size="25" fill="#FFFFFF"/><text text-anchor="middle" pointer-events="none" y="5" font-size="10px" fill="#FFFFFF" font-family="sans-serif"> fawn</text></g><g class="node" transform="translate(363.38793281794415,135.29485457040894)"><circle class="outline" cx="0" cy="0" r="25" fill="#A5ABB6" stroke="#9AA1AC" stroke-width="2px"/><text text-anchor="middle" pointer-events="none" font-family="sans-serif" dy="1.5625" font-size="25" fill="#FFFFFF"/><text text-anchor="middle" pointer-events="none" y="5" font-size="10px" fill="#FFFFFF" font-family="sans-serif"> father</text></g><g class="node" transform="translate(401.18358223842415,40.64142647497874)"><circle class="outline" cx="0" cy="0" r="25" fill="#A5ABB6" stroke="#9AA1AC" stroke-width="2px"/><text text-anchor="middle" pointer-events="none" font-family="sans-serif" dy="1.5625" font-size="25" fill="#FFFFFF"/><text text-anchor="middle" pointer-events="none" y="5" font-size="10px" fill="#FFFFFF" font-family="sans-serif"> calf</text></g><g class="node" transform="translate(222.97711070452604,-84.50974368789846)"><circle class="outline" cx="0" cy="0" r="25" fill="#A5ABB6" stroke="#9AA1AC" stroke-width="2px"/><text text-anchor="middle" pointer-events="none" font-family="sans-serif" dy="1.5625" font-size="25" fill="#FFFFFF"/><text text-anchor="middle" pointer-events="none" y="5" font-size="10px" fill="#FFFFFF" font-family="sans-serif"> brown</text></g><g class="node" transform="translate(187.02923465098817,233.39078352608837)"><circle class="outline" cx="0" cy="0" r="25" fill="#A5ABB6" stroke="#9AA1AC" stroke-width="2px"/><text text-anchor="middle" pointer-events="none" font-family="sans-serif" dy="1.5625" font-size="25" fill="#FFFFFF"/><text text-anchor="middle" pointer-events="none" y="5" font-size="10px" fill="#FFFFFF" font-family="sans-serif"> cry</text></g><g class="node" transform="translate(-107.08622589135027,188.2022036561096)"><circle class="outline" cx="0" cy="0" r="25" fill="#A5ABB6" stroke="#9AA1AC" stroke-width="2px"/><text text-anchor="middle" pointer-events="none" font-family="sans-serif" dy="1.5625" font-size="25" fill="#FFFFFF"/><text text-anchor="middle" pointer-events="none" y="5" font-size="10px" fill="#FFFFFF" font-family="sans-serif"> gentle</text></g><g class="node" transform="translate(-11.70390231124803,-72.57147770429641)"><circle class="outline" cx="0" cy="0" r="25" fill="#A5ABB6" stroke="#9AA1AC" stroke-width="2px"/><text text-anchor="middle" pointer-events="none" font-family="sans-serif" dy="1.5625" font-size="25" fill="#FFFFFF"/><text text-anchor="middle" pointer-events="none" y="5" font-size="10px" fill="#FFFFFF" font-family="sans-serif"> color</text></g><g class="node" transform="translate(-106.1897175957909,3.3343483867833683)"><circle class="outline" cx="0" cy="0" r="25" fill="#A5ABB6" stroke="#9AA1AC" stroke-width="2px"/><text text-anchor="middle" pointer-events="none" font-family="sans-serif" dy="1.5625" font-size="25" fill="#FFFFFF"/><text text-anchor="middle" pointer-events="none" y="5" font-size="10px" fill="#FFFFFF" font-family="sans-serif"> spring</text></g><g class="node" transform="translate(-172.94795362905532,79.47261784446756)"><circle class="outline" cx="0" cy="0" r="25" fill="#A5ABB6" stroke="#9AA1AC" stroke-width="2px"/><text text-anchor="middle" pointer-events="none" font-family="sans-serif" dy="1.5625" font-size="25" fill="#FFFFFF"/><text text-anchor="middle" pointer-events="none" y="5" font-size="10px" fill="#FFFFFF" font-family="sans-serif"> pet</text></g><g class="node" transform="translate(-14.771989689813012,317.4160578399716)"><circle class="outline" cx="0" cy="0" r="25" fill="#A5ABB6" stroke="#9AA1AC" stroke-width="2px"/><text text-anchor="middle" pointer-events="none" font-family="sans-serif" dy="1.5625" font-size="25" fill="#FFFFFF"/><text text-anchor="middle" pointer-events="none" y="5" font-size="10px" fill="#FFFFFF" font-family="sans-serif"> deer</text></g></g></svg>